simulation
nRows=42
nColumns=15
endheader
time  TH_x TH_y TH_z SC_y  SC_z  SC_x  AC_y  AC_z  AC_x  GH_y  GH_z  GH_yy  EL_x  PS_y
0.750020  0.000000  0.000000  0.000000  -28.607565  11.508934  15.000000  43.623580  7.900114  -3.291881  60.982913  53.094753  -85.499063  20.047629  125.301481
0.750101  0.000000  0.000000  0.000000  -28.607565  11.508934  20.000000  44.013747  4.437051  -6.920023  60.982913  53.094753  -85.499063  20.047629  125.301481
0.750182  0.000000  0.000000  0.000000  -28.607565  11.508934  25.000000  44.182983  0.956456  -10.514178  60.982913  53.094753  -85.499063  20.047629  125.301481
0.750262  0.000000  0.000000  0.000000  -28.607565  11.508934  30.000000  44.133760  -2.527907  -14.101052  60.982913  53.094753  -85.499063  20.047629  125.301481
0.750343  0.000000  0.000000  0.000000  -28.607565  11.508934  35.000000  43.865351  -6.002319  -17.707217  60.982913  53.094753  -85.499063  20.047629  125.301481
0.750424  0.000000  0.000000  0.000000  -28.607565  11.508934  40.000000  43.373864  -9.452834  -21.359526  60.982913  53.094753  -85.499063  20.047629  125.301481
0.750504  0.000000  0.000000  0.000000  -28.607565  11.508934  45.000000  42.652219  -12.864882  -25.085447  60.982913  53.094753  -85.499063  20.047629  125.301481
0.750585  0.000000  0.000000  0.000000  -28.607565  11.508934  50.000000  41.690208  -16.222914  -28.913329  60.982913  53.094753  -85.499063  20.047629  125.301481
0.750666  0.000000  0.000000  0.000000  -40.899688  -10.075278  -20.000000  64.518045  20.574920  22.458569  47.094308  26.503571  -71.808265  25.165305  116.399627
0.750747  0.000000  0.000000  0.000000  -40.899688  -10.075278  -15.000000  65.221206  16.047599  20.222484  47.094308  26.503571  -71.808265  25.165305  116.399627
0.750827  0.000000  0.000000  0.000000  -40.899688  -10.075278  -10.000000  65.730254  11.498128  18.086205  47.094308  26.503571  -71.808265  25.165305  116.399627
0.750908  0.000000  0.000000  0.000000  -40.899688  -10.075278  -5.000000  66.061771  6.933597  16.018077  47.094308  26.503571  -71.808265  25.165305  116.399627
0.750989  0.000000  0.000000  0.000000  -40.899688  -10.075278  0.000000  66.226246  2.360294  13.989749  47.094308  26.503571  -71.808265  25.165305  116.399627
0.751069  0.000000  0.000000  0.000000  -40.899688  -10.075278  5.000000  66.228780  -2.215945  11.974754  47.094308  26.503571  -71.808265  25.165305  116.399627
0.751150  0.000000  0.000000  0.000000  -40.899688  -10.075278  10.000000  66.069474  -6.789426  9.947243  47.094308  26.503571  -71.808265  25.165305  116.399627
0.751231  0.000000  0.000000  0.000000  -40.899688  -10.075278  15.000000  65.743364  -11.354332  7.880796  47.094308  26.503571  -71.808265  25.165305  116.399627
0.751312  0.000000  0.000000  0.000000  -40.899688  -10.075278  20.000000  65.240122  -15.904375  5.747123  47.094308  26.503571  -71.808265  25.165305  116.399627
0.751392  0.000000  0.000000  0.000000  -40.899688  -10.075278  25.000000  64.543413  -20.432518  3.514716  47.094308  26.503571  -71.808265  25.165305  116.399627
0.751473  0.000000  0.000000  0.000000  -40.899688  -10.075278  30.000000  63.629618  -24.930480  1.147079  47.094308  26.503571  -71.808265  25.165305  116.399627
0.751554  0.000000  0.000000  0.000000  -40.899688  -10.075278  35.000000  62.466208  -29.388219  -1.399386  47.094308  26.503571  -71.808265  25.165305  116.399627
0.751635  0.000000  0.000000  0.000000  -40.899688  -10.075278  40.000000  61.009254  -33.793145  -4.178198  47.094308  26.503571  -71.808265  25.165305  116.399627
0.751715  0.000000  0.000000  0.000000  -40.899688  -10.075278  45.000000  59.200011  -38.129049  -7.256454  47.094308  26.503571  -71.808265  25.165305  116.399627
0.751796  0.000000  0.000000  0.000000  -40.899688  -10.075278  50.000000  56.960278  -42.374557  -10.719747  47.094308  26.503571  -71.808265  25.165305  116.399627
0.751877  0.000000  0.000000  0.000000  -23.454113  5.992007  -20.000000  43.851280  22.397180  19.270396  62.204380  47.875009  -66.849676  16.096848  121.109316
0.751957  0.000000  0.000000  0.000000  -23.454113  5.992007  -15.000000  45.195182  18.889818  15.461471  62.204380  47.875009  -66.849676  16.096848  121.109316
0.752038  0.000000  0.000000  0.000000  -23.454113  5.992007  -10.000000  46.269495  15.308119  11.810562  62.204380  47.875009  -66.849676  16.096848  121.109316
0.752119  0.000000  0.000000  0.000000  -23.454113  5.992007  -5.000000  47.092846  11.669200  8.283532  62.204380  47.875009  -66.849676  16.096848  121.109316
0.752200  0.000000  0.000000  0.000000  -23.454113  5.992007  0.000000  47.679709  7.988405  4.848420  62.204380  47.875009  -66.849676  16.096848  121.109316
0.752280  0.000000  0.000000  0.000000  -23.454113  5.992007  5.000000  48.040471  4.279786  1.474966  62.204380  47.875009  -66.849676  16.096848  121.109316
0.752361  0.000000  0.000000  0.000000  -23.454113  5.992007  10.000000  48.181546  0.556530  -1.865868  62.204380  47.875009  -66.849676  16.096848  121.109316
0.752442  0.000000  0.000000  0.000000  -23.454113  5.992007  15.000000  48.105434  -3.168614  -5.202485  62.204380  47.875009  -66.849676  16.096848  121.109316
0.752522  0.000000  0.000000  0.000000  -23.454113  5.992007  20.000000  47.810784  -6.882960  -8.563192  62.204380  47.875009  -66.849676  16.096848  121.109316
0.752603  0.000000  0.000000  0.000000  -23.454113  5.992007  25.000000  47.292361  -10.573490  -11.976783  62.204380  47.875009  -66.849676  16.096848  121.109316
0.752684  0.000000  0.000000  0.000000  -23.454113  5.992007  30.000000  46.540975  -14.226456  -15.473097  62.204380  47.875009  -66.849676  16.096848  121.109316
0.752765  0.000000  0.000000  0.000000  -23.454113  5.992007  35.000000  45.543387  -17.826954  -19.083540  62.204380  47.875009  -66.849676  16.096848  121.109316
0.752845  0.000000  0.000000  0.000000  -23.454113  5.992007  40.000000  44.282207  -21.358437  -22.841540  62.204380  47.875009  -66.849676  16.096848  121.109316
0.752926  0.000000  0.000000  0.000000  -23.454113  5.992007  45.000000  42.735885  -24.802242  -26.782915  62.204380  47.875009  -66.849676  16.096848  121.109316
0.753007  0.000000  0.000000  0.000000  -23.454113  5.992007  50.000000  40.878900  -28.136996  -30.945912  62.204380  47.875009  -66.849676  16.096848  121.109316
0.753087  0.000000  0.000000  0.000000  -49.166917  -6.731413  -20.000000  66.339853  22.861597  25.386202  67.233098  33.594642  -72.608327  23.396539  112.877966
0.753168  0.000000  0.000000  0.000000  -49.166917  -6.731413  -15.000000  67.081992  18.268433  23.275351  67.233098  33.594642  -72.608327  23.396539  112.877966
0.753249  0.000000  0.000000  0.000000  -49.166917  -6.731413  -10.000000  67.632890  13.653327  21.273798  67.233098  33.594642  -72.608327  23.396539  112.877966
0.753330  0.000000  0.000000  0.000000  -49.166917  -6.731413  -5.000000  68.011572  9.022795  19.349350  67.233098  33.594642  -72.608327  23.396539  112.877966
